<?xml version="1.0" encoding="UTF-8"?>
<svg width="700pt" height="700pt" version="1.1" viewBox="0 0 700 700" xmlns="http://www.w3.org/2000/svg">
 <g>
  <path d="m577.5 560h-455c-13.926 0-27.277-5.5312-37.125-15.375-9.8438-9.8477-15.375-23.199-15.375-37.125v-350c0.007812-3.1641 0.875-6.2695 2.5078-8.9805 1.6328-2.7148 3.9727-4.9297 6.7656-6.418l262.5-140c5.1445-2.7383 11.309-2.7383 16.453 0l262.5 140c2.793 1.4883 5.1328 3.7031 6.7656 6.418 1.6328 2.7109 2.5 5.8164 2.5078 8.9805v140c0 13.926-5.5312 27.277-15.375 37.125-9.8477 9.8438-23.199 15.375-37.125 15.375h-280c-4.6602 0.027344-9.1406-1.8047-12.445-5.0938-3.3047-3.2891-5.1602-7.7578-5.1562-12.422 0.003906-4.6602 1.8672-9.125 5.1758-12.41l87.5-87.5c4.5078-3.8555 10.66-5.1719 16.348-3.4883 5.6875 1.6797 10.137 6.1289 11.816 11.816 1.6836 5.6914 0.37109 11.844-3.4883 16.348l-57.574 57.75h237.82c4.6406 0 9.0938-1.8438 12.375-5.125s5.125-7.7344 5.125-12.375v-129.5l-245-130.73-245 130.73v339.5c0 4.6406 1.8438 9.0938 5.125 12.375s7.7344 5.125 12.375 5.125h455c4.6406 0 9.0938-1.8438 12.375-5.125s5.125-7.7344 5.125-12.375v-105c0-6.2539 3.3359-12.031 8.75-15.156s12.086-3.125 17.5 0 8.75 8.9023 8.75 15.156v105c0 13.926-5.5312 27.277-15.375 37.125-9.8477 9.8438-23.199 15.375-37.125 15.375z"/>
  <path d="m385 437.5c-4.6523 0.027344-9.1211-1.8008-12.426-5.0742l-87.5-87.5c-3.8555-4.5078-5.1719-10.66-3.4883-16.348 1.6797-5.6875 6.1289-10.137 11.816-11.816 5.6914-1.6836 11.844-0.37109 16.348 3.4883l87.5 87.5c3.2148 3.2812 5.0117 7.6914 5.0039 12.285-0.007812 4.5938-1.8242 9-5.0508 12.266s-7.6094 5.1328-12.203 5.1992z"/>
 </g>
</svg>
